<svg xmlns="http://www.w3.org/2000/svg" xmlns:xlink="http://www.w3.org/1999/xlink" version="1.1" style="" xml:space="preserve" width="119" height="31"><rect id="backgroundrect" width="100%" height="100%" x="0" y="0" fill="none" stroke="none" class="" style=""/>

<g class="currentLayer" style=""><title>Layer 1</title>
	
	
	
	
	
	
<g class="" id="svg_1"><path d="M117.14813006090762,5.460698252279266 H44.54269616152857 c-0.9330154533611411,0 -1.6921364226931845,0.749047601217914 -1.6921364226931845,1.669976371395388 c0,0.9206893813627671 0.7591209693320433,1.669976371395388 1.6921364226931845,1.669976371395388 h72.60543389937907 c0.9330154533611411,0 1.6918938920320556,-0.749047601217914 1.6918938920320556,-1.669976371395388 C118.84002395293969,6.209745853497182 118.08114551426878,5.460698252279266 117.14813006090762,5.460698252279266 z" id="svg_2" class=""/><path d="M44.54269616152857,17.171120290111784 h57.372810665884614 c0.9330154533611411,0 1.6921364226931845,-0.749047601217914 1.6921364226931845,-1.669976371395388 c0,-0.9206893813627671 -0.7591209693320433,-1.669976371395388 -1.6921364226931845,-1.669976371395388 H44.54269616152857 c-0.9330154533611411,0 -1.6921364226931845,0.749047601217914 -1.6921364226931845,1.669976371395388 C42.850802269496505,16.421833300079154 43.60968070816743,17.171120290111784 44.54269616152857,17.171120290111784 z" id="svg_3" class=""/><path d="M117.14813006090762,22.201636842362735 H44.54269616152857 c-0.9330154533611411,0 -1.6921364226931845,0.749047601217914 -1.6921364226931845,1.669976371395388 s0.7591209693320433,1.669976371395388 1.6921364226931845,1.669976371395388 h72.60543389937907 c0.9330154533611411,0 1.6918938920320556,-0.749047601217914 1.6918938920320556,-1.669976371395388 S118.08114551426878,22.201636842362735 117.14813006090762,22.201636842362735 z" id="svg_4" class=""/><path d="M26.215139161373983,-6.848655342784707e-15 H5.193066516082338 C2.3295070001387463,-6.848655342784707e-15 0,2.2998083428892517 0,5.1265114669484255 v20.748307348277105 c0,2.8274212905032865 2.3295070001387463,5.127469022207255 5.193066516082336,5.127469022207255 h21.022072645291644 c2.864287107926975,0 5.194521700049106,-2.3000477317039696 5.194521700049106,-5.127469022207255 v-20.748307348277105 C31.409660861423095,2.2998083428892517 29.07918373863983,-6.848655342784707e-15 26.215139161373983,-6.848655342784707e-15 zM3.3835452534029837,5.1265114669484255 c0,-0.9853243613336319 0.8117501227969165,-1.7870375017870659 1.809521262679353,-1.7870375017870659 h21.022072645291644 c0.9987412625269506,0 1.8114615079683811,0.8017131404534338 1.8114615079683811,1.7870375017870659 v20.748307348277105 c0,0.9858031389630459 -0.8127202454414306,1.7879950570458936 -1.8114615079683811,1.7879950570458936 H5.193066516082338 c-0.9977711398824365,0 -1.809521262679353,-0.8021919180828476 -1.809521262679353,-1.7879950570458936 V5.1265114669484255 z" id="svg_5" class=""/><path d="M11.526512200790636,23.88334326567876 c0.321110595334066,0.36746183057510334 0.7877395873452002,0.5781239875171823 1.2800768294359508,0.5781239875171823 c0.031043924624441385,0 0.06281544123226819,-0.0007181664441207245 0.0938593658567097,-0.0026332769617759856 c0.5197432067982647,-0.028247880135415123 1.0057746516996753,-0.29827846312480705 1.3006919356318687,-0.7222360539707402 l10.13947934979704,-14.580933314983039 c0.25611237815164156,-0.36794060820451724 0.35142692797512187,-0.8120068594858307 0.26872397253032076,-1.2505671680288861 c-0.08270295544480112,-0.438560308543055 -0.3334796590516167,-0.8189491351123313 -0.7060067545449131,-1.0715043346281188 c-0.28327581219802767,-0.19198982939494016 -0.6138451033161032,-0.29349068683066887 -0.9560558661683438,-0.29349068683066887 c-0.558548112578817,0 -1.0802315646661087,0.2709881382482197 -1.396006485455349,0.7251087197472234 l-8.898692487463899,12.796289701343042 l-2.9079426269300956,-3.3222379705024645 c-0.32183818731745145,-0.36746183057510334 -0.7889522406508426,-0.5781239875171823 -1.2812894827415928,-0.5781239875171823 c-0.4055112654067658,0 -0.7981684057737234,0.14435145526826543 -1.105212222762339,0.40624281855762256 c-0.7060067545449131,0.6018234801731661 -0.7841016274282738,1.6584857082894564 -0.1743795453513544,2.3553465479012647 L11.526512200790636,23.88334326567876 z" id="svg_6" class=""/></g></g></svg>